<svg width="30" height="30" viewBox="0 0 30 30" fill="none" xmlns="http://www.w3.org/2000/svg">
<path d="M14.56 29.12C22.6013 29.12 29.12 22.6013 29.12 14.56C29.12 6.51873 22.6013 0 14.56 0C6.51873 0 0 6.51873 0 14.56C0 22.6013 6.51873 29.12 14.56 29.12Z" fill="white"/>
<path d="M5.46031 6.35938L12.1006 15.7939L5.39844 23.6394H7.19844L12.9134 16.9484L17.6216 23.6394H23.3366L16.0466 13.2809L21.9584 6.35938H20.1584L15.2338 12.1264L11.1753 6.35938H5.46031ZM8.21656 7.79938H10.423L15.5016 14.9994L20.5803 22.1994H18.3739L8.21656 7.79938Z" fill="#B00000" stroke="#B00000" stroke-width="0.1"/>
</svg>
